<svg width="77" height="17" viewBox="0 0 77 17" fill="none" xmlns="http://www.w3.org/2000/svg">
<path d="M17.0677 6.09826C17.0677 6.09826 17.0617 6.09426 17.0597 6.09226L14.6718 4.23714C14.968 5.47655 15.149 6.73795 15.0814 8.01535C15.0217 9.12882 14.6996 10.1703 14.4888 11.2598C14.286 12.3133 14.2343 13.3668 14.294 14.4303C14.4471 15.2639 14.5286 16.1035 14.5445 16.9411H15.5824C16.7853 16.9411 17.7696 15.9676 17.7696 14.7801V7.54957C17.7696 6.98184 17.5131 6.44809 17.0697 6.09826H17.0677ZM10.8641 1.28654C9.77455 0.440944 7.98905 0.440944 6.89945 1.28654L6.38845 1.68435C8.94344 4.527 11.5998 7.4856 13.1865 10.9959C13.3535 10.1803 13.5901 9.3787 13.6895 8.55109C13.9262 6.62601 13.4768 4.71691 12.9121 2.87379L10.8641 1.28654ZM2.97849 14.6922C1.85907 14.2084 0.856963 13.5327 0 12.7111V14.7801C0 15.9416 0.938484 16.8971 2.10364 16.9391C2.13346 16.9411 2.15931 16.9411 2.18913 16.9411H13.2064C13.1984 16.5533 13.1726 16.1655 13.1328 15.7797C9.83022 15.6837 6.06436 16.0215 2.98048 14.6922H2.97849ZM4.16154 13.7126C5.65278 14.2084 7.22951 14.2284 8.78437 14.2824C10.1623 14.3323 11.5461 14.3783 12.924 14.4263C12.8067 13.8486 12.6457 13.2709 12.4409 12.6951C11.0351 8.76299 8.07852 5.56251 5.33067 2.50596L0.709828 6.09226C0.709828 6.09226 0.703863 6.09626 0.697898 6.09826C0.256492 6.44809 0 6.98184 0 7.54957V10.7281C1.06176 12.0994 2.50925 13.1649 4.16154 13.7126Z" fill="white"/>
<path d="M24.9542 5.72431C25.1344 5.51935 25.3738 5.41687 25.6766 5.41687H28.59V4.18311H25.1937C24.8533 4.18311 24.5644 4.24942 24.3269 4.36596C24.0814 4.49054 23.8796 4.65129 23.7192 4.84219C23.553 5.04112 23.4382 5.2521 23.3511 5.4872C23.272 5.7223 23.2363 5.94936 23.2363 6.1704V14.9535C23.2363 15.1745 23.272 15.4076 23.3511 15.6427C23.4382 15.8778 23.553 16.0908 23.7192 16.2817C23.8776 16.4806 24.0814 16.6333 24.3269 16.7579C24.5663 16.8825 24.8553 16.9407 25.1937 16.9407H28.59V15.709H25.6766C25.3738 15.709 25.1344 15.6065 24.9542 15.4015C24.7741 15.1966 24.6871 14.9535 24.6871 14.6741V11.2542H27.824V9.86768H24.6871V6.46979C24.6871 6.17642 24.7741 5.92726 24.9542 5.7223V5.72431Z" fill="white"/>
<path d="M36.222 6.71054V6.26488C36.222 6.1364 36.1937 5.95572 36.1491 5.71884C36.1066 5.48998 35.9831 5.2531 35.7868 5.02224C35.5844 4.79338 35.2949 4.59866 34.8961 4.43404C34.5054 4.2614 33.9629 4.18311 33.2665 4.18311C32.5701 4.18311 32.0276 4.2614 31.6308 4.43404C31.2401 4.59866 30.9426 4.79338 30.7401 5.02224C30.5377 5.25109 30.4142 5.48798 30.3636 5.71884C30.3211 5.95572 30.2988 6.13439 30.2988 6.26488V14.859C30.2988 14.9814 30.3211 15.1601 30.3636 15.397C30.4142 15.6339 30.5377 15.8627 30.7401 16.0936C30.9426 16.3224 31.2401 16.5252 31.6308 16.6898C32.0296 16.8544 32.5722 16.9407 33.2665 16.9407C33.9608 16.9407 34.5054 16.8544 34.8961 16.6898C35.2949 16.5252 35.5844 16.3244 35.7868 16.0936C35.9831 15.8647 36.1046 15.6339 36.1491 15.405C36.1917 15.1822 36.222 14.9955 36.222 14.859V14.4274H34.7443V14.6141C34.7443 14.7064 34.722 14.8148 34.6936 14.9373C34.6572 15.0517 34.5843 15.1661 34.477 15.2685C34.3617 15.3769 34.2098 15.4632 34.0135 15.5335C33.8171 15.6118 33.5499 15.6479 33.2179 15.6479C32.9062 15.6479 32.6531 15.6118 32.4568 15.5335C32.2685 15.4612 32.1248 15.3689 32.0155 15.2605C31.9142 15.1521 31.8495 15.0376 31.8191 14.9152C31.7908 14.7927 31.7766 14.6863 31.7766 14.5779V6.55998C31.7766 6.45158 31.7908 6.34518 31.8191 6.22272C31.8474 6.10026 31.9122 5.98584 32.0155 5.87141C32.1248 5.75698 32.2685 5.66263 32.4568 5.58434C32.6531 5.51207 32.9062 5.47593 33.2179 5.47593C33.5519 5.47593 33.8191 5.51207 34.0135 5.58434C34.2098 5.66263 34.3617 5.74895 34.477 5.84933C34.5864 5.95773 34.6572 6.06413 34.6936 6.18659C34.722 6.30904 34.7443 6.42347 34.7443 6.52385V6.71054H36.222Z" fill="white"/>
<path d="M43.2122 5.71884C43.1705 5.48998 43.0491 5.2531 42.856 5.02224C42.663 4.79338 42.3724 4.59866 41.9883 4.43404C41.5962 4.2614 41.0629 4.18311 40.3802 4.18311C39.6976 4.18311 39.1623 4.2614 38.7782 4.43404C38.3861 4.59866 38.1015 4.79338 37.9025 5.02224C37.7094 5.25109 37.59 5.48798 37.5463 5.71884C37.5045 5.95572 37.4746 6.13439 37.4746 6.26488V14.859C37.4746 14.9814 37.5025 15.1601 37.5463 15.397C37.588 15.6339 37.7094 15.8627 37.9025 16.0936C38.1015 16.3224 38.3861 16.5252 38.7782 16.6898C39.1623 16.8544 39.6956 16.9407 40.3802 16.9407C41.0649 16.9407 41.5982 16.8544 41.9883 16.6898C42.3724 16.5252 42.665 16.3244 42.856 16.0936C43.0491 15.8647 43.1685 15.6339 43.2122 15.405C43.262 15.1822 43.2839 14.9955 43.2839 14.859V6.26488C43.2839 6.1364 43.262 5.95572 43.2122 5.71884ZM41.845 14.4274H41.8311V14.6141C41.8311 14.7064 41.8171 14.8148 41.7813 14.9373C41.7455 15.0517 41.6738 15.1661 41.5743 15.2685C41.4748 15.3769 41.3176 15.4632 41.1266 15.5335C40.9275 15.6118 40.6569 15.6479 40.3285 15.6479C40.022 15.6479 39.7732 15.6118 39.5882 15.5335C39.3951 15.4612 39.2538 15.3689 39.1463 15.2605C39.0468 15.1521 38.9832 15.0376 38.9533 14.9152C38.9254 14.7927 38.9115 14.6863 38.9115 14.5779V6.55998C38.9115 6.45158 38.9254 6.34518 38.9533 6.22272C38.9812 6.10026 39.0448 5.98584 39.1463 5.87141C39.2538 5.75698 39.3951 5.66263 39.5882 5.58434C39.7732 5.51207 40.022 5.47593 40.3285 5.47593C40.6569 5.47593 40.9255 5.51207 41.1266 5.58434C41.3196 5.66263 41.4748 5.74895 41.5743 5.84933C41.6738 5.95773 41.7455 6.06413 41.7813 6.18659C41.8171 6.30904 41.8311 6.42347 41.8311 6.52385V6.71054H41.845V14.4274Z" fill="white"/>
<path d="M54.3347 6.71054V6.26488C54.3347 6.1364 54.3128 5.95572 54.271 5.71884C54.2213 5.48998 54.108 5.2531 53.9091 5.02224C53.7162 4.79338 53.4258 4.59866 53.042 4.43404C52.6581 4.2614 52.1251 4.18311 51.441 4.18311C50.7568 4.18311 50.2238 4.2614 49.834 4.43404C49.4502 4.59866 49.1578 4.79338 48.9589 5.02224C48.7601 5.25109 48.6388 5.48798 48.589 5.71884C48.5473 5.95572 48.5254 6.13439 48.5254 6.26488V14.859C48.5254 14.9814 48.5473 15.1601 48.589 15.397C48.6388 15.6339 48.7601 15.8627 48.9589 16.0936C49.1578 16.3224 49.4502 16.5252 49.834 16.6898C50.2258 16.8544 50.7588 16.9407 51.441 16.9407C52.1231 16.9407 52.6581 16.8544 53.042 16.6898C53.4258 16.5252 53.7181 16.3244 53.9091 16.0936C54.108 15.8647 54.2213 15.6339 54.271 15.405C54.3128 15.1822 54.3347 14.9955 54.3347 14.859V14.4274H52.8908V14.6141C52.8908 14.7064 52.8689 14.8148 52.8331 14.9373C52.8053 15.0517 52.7337 15.1661 52.6203 15.2685C52.5129 15.3769 52.3638 15.4632 52.1728 15.5335C51.9799 15.6118 51.7174 15.6479 51.3913 15.6479C51.0651 15.6479 50.8364 15.6118 50.6435 15.5335C50.4585 15.4612 50.3093 15.3689 50.2099 15.2605C50.1105 15.1521 50.0389 15.0376 50.011 14.9152C49.9832 14.7927 49.9693 14.6863 49.9693 14.5779V6.55998C49.9693 6.45158 49.9832 6.34518 50.011 6.22272C50.0389 6.10026 50.1105 5.98584 50.2099 5.87141C50.3093 5.75698 50.4585 5.66263 50.6435 5.58434C50.8364 5.51207 51.077 5.47593 51.3913 5.47593C51.7055 5.47593 51.9819 5.51207 52.1728 5.58434C52.3658 5.66263 52.5149 5.74895 52.6203 5.84933C52.7337 5.95773 52.8053 6.06413 52.8331 6.18659C52.8689 6.30904 52.8908 6.42347 52.8908 6.52385V6.71054H54.3347Z" fill="white"/>
<path d="M61.3242 5.74186C61.2808 5.50251 61.1604 5.2692 60.969 5.03791C60.7776 4.80661 60.4855 4.60145 60.0929 4.43653C59.7081 4.26959 59.1753 4.18311 58.4906 4.18311C57.8059 4.18311 57.2731 4.26959 56.8883 4.43653C56.4976 4.60347 56.2055 4.80661 56.0122 5.03791C55.8208 5.2692 55.6984 5.50251 55.657 5.74186C55.6076 5.9812 55.5859 6.16222 55.5859 6.28692V16.9407H57.0244V6.58459C57.0244 6.48201 57.0383 6.36737 57.0679 6.24267C57.0955 6.12602 57.1606 6.00333 57.2593 5.88667C57.3658 5.77002 57.5079 5.67549 57.6934 5.60308C57.8848 5.52263 58.1354 5.48642 58.4412 5.48642C58.7688 5.48642 59.0313 5.52263 59.2246 5.60308C59.416 5.67549 59.566 5.76197 59.6805 5.87259C59.787 5.97517 59.8581 6.08981 59.8936 6.21451C59.9212 6.33117 59.9429 6.44581 59.9429 6.54839V16.9407H61.3952V6.28692C61.3952 6.16423 61.3676 5.9812 61.3242 5.74186Z" fill="white"/>
<path d="M69.0226 6.71014V6.26455C69.0226 6.13609 69.0002 5.95545 68.9576 5.7186C68.9068 5.48978 68.7829 5.25293 68.5879 5.02211C68.3908 4.79329 68.0943 4.59859 67.7022 4.434C67.3102 4.26139 66.7577 4.18311 66.061 4.18311C65.3642 4.18311 64.8178 4.26139 64.4258 4.434C64.0338 4.59859 63.7352 4.79329 63.5402 5.02211C63.337 5.25093 63.2213 5.48777 63.1705 5.7186C63.1278 5.95545 63.1055 6.13408 63.1055 6.26455V9.13683C63.1055 9.55231 63.2355 9.9417 63.5056 10.315C63.7738 10.6803 64.2389 10.9614 64.9011 11.154C64.9235 11.154 64.96 11.1681 65.0027 11.1902L66.3108 11.6217C66.39 11.6578 66.4855 11.6859 66.5871 11.7221C66.6968 11.7582 66.7841 11.7863 66.8491 11.8084C67.1538 11.9168 67.3427 12.0593 67.424 12.2459C67.5113 12.4406 67.5479 12.6052 67.5479 12.7417V14.6144C67.5479 14.7067 67.5336 14.8151 67.4971 14.9376C67.4605 15.052 67.3874 15.1664 67.2797 15.2688C67.17 15.3771 67.0177 15.4635 66.8227 15.5337C66.6196 15.612 66.3575 15.6481 66.0163 15.6481C65.7035 15.6481 65.4496 15.612 65.2606 15.5337C65.0717 15.4614 64.9194 15.3691 64.8178 15.2607C64.7081 15.1523 64.6431 15.0379 64.6147 14.9155C64.5863 14.7931 64.572 14.6867 64.572 14.5783V14.4278H63.1116V14.8593C63.1116 14.9817 63.1339 15.1604 63.1766 15.3972C63.2273 15.6341 63.3431 15.8629 63.5463 16.0937C63.7433 16.3225 64.0399 16.5253 64.4319 16.6898C64.8239 16.8544 65.3683 16.9407 66.0671 16.9407C66.7658 16.9407 67.3163 16.8544 67.7083 16.6898C68.1004 16.5253 68.399 16.3245 68.594 16.0937C68.791 15.8649 68.9129 15.6341 68.9637 15.4052C69.0063 15.1825 69.0287 14.9958 69.0287 14.8593V12.4968C69.0287 12.1095 68.919 11.7502 68.7016 11.427C68.5858 11.2544 68.4477 11.1039 68.2872 10.9754C68.1349 10.8389 67.946 10.7386 67.7429 10.6743C67.5763 10.596 67.3793 10.5238 67.1477 10.4656C66.9161 10.3732 66.6602 10.2869 66.3921 10.1926C66.1158 10.1003 65.8761 10.02 65.6649 9.94773C65.5999 9.92565 65.5267 9.90558 65.4536 9.8835C65.3886 9.8554 65.3297 9.83332 65.2871 9.81124C64.9824 9.71088 64.7853 9.56636 64.698 9.37969C64.6106 9.19303 64.568 9.02844 64.568 8.8779V6.55961C64.568 6.45122 64.5822 6.34484 64.6106 6.2224C64.6391 6.09996 64.7041 5.98555 64.8138 5.87114C64.9153 5.75673 65.0677 5.6624 65.2566 5.58412C65.4455 5.51186 65.6994 5.47573 66.0122 5.47573C66.3535 5.47573 66.6155 5.51186 66.8186 5.58412C67.0157 5.6624 67.168 5.74871 67.2757 5.84906C67.3854 5.95745 67.4565 6.06383 67.493 6.18627C67.5296 6.30871 67.5438 6.42312 67.5438 6.52348V6.71014H69.0266H69.0226Z" fill="white"/>
<path d="M76.4746 5.74186C76.4312 5.50251 76.3108 5.2692 76.1194 5.03791C75.928 4.80661 75.6359 4.60145 75.2433 4.43653C74.8585 4.26959 74.3257 4.18311 73.641 4.18311C72.9562 4.18311 72.4235 4.26959 72.0387 4.43653C71.648 4.60347 71.3559 4.80661 71.1626 5.03791C70.9711 5.2692 70.8488 5.50251 70.8074 5.74186C70.758 5.9812 70.7363 6.16222 70.7363 6.28692V16.9407H72.1748V6.58459C72.1748 6.48201 72.1887 6.36737 72.2182 6.24267C72.2459 6.12602 72.311 6.00333 72.4097 5.88667C72.5162 5.77002 72.6583 5.67549 72.8438 5.60308C73.0352 5.52263 73.2858 5.48642 73.5916 5.48642C73.9192 5.48642 74.1816 5.52263 74.375 5.60308C74.5664 5.67549 74.7164 5.76197 74.8308 5.87259C74.9374 5.97517 75.0084 6.08981 75.044 6.21451C75.0716 6.33117 75.0933 6.44581 75.0933 6.54839V16.9407H76.5456V6.28692C76.5456 6.16423 76.518 5.9812 76.4746 5.74186Z" fill="white"/>
</svg>
